<svg height="432pt" viewBox="0 0 432 432" width="432pt" xmlns="http://www.w3.org/2000/svg"><path d="m6 432h420c3.3125 0 6-2.6875 6-6v-420c0-3.3125-2.6875-6-6-6h-420c-3.3125 0-6 2.6875-6 6v420c0 3.3125 2.6875 6 6 6zm6-84h63.601562v72h-63.601562zm344.398438-84h63.601562v72h-63.601562zm0-12v-72h63.601562v72zm0-84v-72h63.601562v72zm-12 252h-256.796876v-408h256.796876zm-268.796876-252h-63.601562v-72h63.601562zm0 12v72h-63.601562v-72zm0 84v72h-63.601562v-72zm280.796876 156v-72h63.601562v72zm63.601562-336h-63.601562v-72h63.601562zm-344.398438-72v72h-63.601562v-72zm0 0"/><path d="m216 307.910156c50.761719 0 91.910156-41.148437 91.910156-91.910156s-41.148437-91.910156-91.910156-91.910156-91.910156 41.148437-91.910156 91.910156c.058594 50.734375 41.175781 91.851562 91.910156 91.910156zm0-171.820312c44.132812 0 79.910156 35.777344 79.910156 79.910156s-35.777344 79.910156-79.910156 79.910156-79.910156-35.777344-79.910156-79.910156c.050781-44.113281 35.796875-79.859375 79.910156-79.910156zm0 0"/><path d="m196.15625 255.304688c1.949219 1.046874 4.3125.933593 6.15625-.289063l51.199219-34.015625c1.675781-1.113281 2.683593-2.988281 2.683593-5s-1.007812-3.886719-2.683593-5l-51.199219-34.019531c-1.84375-1.222657-4.207031-1.335938-6.15625-.289063s-3.167969 3.078125-3.164062 5.289063v68.039062c0 2.210938 1.214843 4.242188 3.164062 5.285157zm8.835938-62.132813 34.359374 22.828125-34.359374 22.828125zm0 0"/></svg>