<?xml version="1.0" encoding="iso-8859-1"?>
<!-- Generator: Adobe Illustrator 19.0.0, SVG Export Plug-In . SVG Version: 6.00 Build 0)  -->
<svg version="1.1" id="Layer_1" xmlns="http://www.w3.org/2000/svg" xmlns:xlink="http://www.w3.org/1999/xlink" x="0px" y="0px"
	 viewBox="0 0 512.217 512.217" style="enable-background:new 0 0 512.217 512.217;" xml:space="preserve">
<g transform="translate(1 1)">
	<g>
		<path d="M502.684,459.803v-25.6c0-5.12-3.413-8.533-8.533-8.533h-17.067v-25.6c0-5.12-3.413-8.533-8.533-8.533h-17.067V203.803
			h17.067c5.12,0,8.533-3.413,8.533-8.533v-25.6h17.067c4.267,0,7.68-2.56,7.68-6.827c0.853-3.413-0.853-7.68-4.267-9.387
			L258.631,33.99c-2.56-0.853-5.12-0.853-7.68,0L3.484,153.456c-3.413,1.707-5.12,5.12-4.267,9.387
			c0.853,4.267,4.267,6.827,8.533,6.827h25.6v25.6c0,5.12,3.413,8.533,8.533,8.533H58.95v187.733H41.884
			c-5.12,0-8.533,3.413-8.533,8.533v25.6H16.284c-5.12,0-8.533,3.413-8.533,8.533v25.6c-5.12,0-8.533,3.413-8.533,8.533
			s3.413,8.533,8.533,8.533h8.533h477.867h8.533c5.12,0,8.533-3.413,8.533-8.533C511.217,463.215,507.804,459.803,502.684,459.803z
			 M255.217,51.056L458.31,152.603H45.297L255.217,51.056z M50.417,186.737V169.67h409.6v17.067H442.95h-34.133h-51.2h-34.133h-51.2
			h-34.133h-51.2h-34.133h-51.2H67.484H50.417z M434.417,203.803v187.733H417.35V203.803H434.417z M400.284,203.803v187.733h-34.133
			V203.803H400.284z M349.084,203.803v187.733h-17.067V203.803H349.084z M314.951,203.803v187.733h-34.133V203.803H314.951z
			 M263.751,203.803v187.733h-17.067V203.803H263.751z M229.617,203.803v187.733h-34.133V203.803H229.617z M178.418,203.803v187.733
			h-17.067V203.803H178.418z M144.284,203.803v187.733h-34.133V203.803H144.284z M93.084,203.803v187.733H76.017V203.803H93.084z
			 M50.416,408.603L50.416,408.603h17.068h34.133h51.2h34.133h51.2h34.133h51.2h34.133h51.2h34.133h17.067v17.067h-409.6V408.603z
			 M485.618,459.803H24.817v-17.067h17.067h426.667h17.067V459.803z"/>
	</g>
</g>
<g>
</g>
<g>
</g>
<g>
</g>
<g>
</g>
<g>
</g>
<g>
</g>
<g>
</g>
<g>
</g>
<g>
</g>
<g>
</g>
<g>
</g>
<g>
</g>
<g>
</g>
<g>
</g>
<g>
</g>
</svg>
