<?xml version="1.0" encoding="iso-8859-1"?>
<!-- Generator: Adobe Illustrator 16.0.0, SVG Export Plug-In . SVG Version: 6.00 Build 0)  -->
<!DOCTYPE svg PUBLIC "-//W3C//DTD SVG 1.1//EN" "http://www.w3.org/Graphics/SVG/1.1/DTD/svg11.dtd">
<svg version="1.1" id="Capa_1" xmlns="http://www.w3.org/2000/svg" xmlns:xlink="http://www.w3.org/1999/xlink" x="0px" y="0px"
	 width="460.932px" height="460.932px" viewBox="0 0 460.932 460.932" style="enable-background:new 0 0 460.932 460.932;"
	 xml:space="preserve">
<g>
	<g>
		<path d="M435.363,152.913L233.532,49.588V33.031l30.259-12.178c0.073-0.029,0.137-0.073,0.206-0.107
			c0.098-0.049,0.193-0.092,0.284-0.15c0.088-0.055,0.167-0.119,0.246-0.184c0.078-0.06,0.157-0.116,0.228-0.185
			c0.079-0.074,0.146-0.157,0.216-0.237c0.062-0.071,0.123-0.139,0.178-0.215c0.068-0.098,0.122-0.198,0.182-0.303
			c0.031-0.062,0.075-0.115,0.105-0.181c0.007-0.013,0.01-0.029,0.017-0.044c0.049-0.107,0.082-0.224,0.116-0.339
			c0.023-0.079,0.06-0.157,0.074-0.237c0.024-0.103,0.03-0.207,0.043-0.31c0.012-0.096,0.031-0.191,0.032-0.285
			c0.003-0.092-0.011-0.184-0.019-0.276c-0.008-0.107-0.009-0.217-0.025-0.321c-0.014-0.081-0.042-0.161-0.062-0.243
			c-0.029-0.114-0.059-0.231-0.101-0.343c-0.007-0.016-0.007-0.029-0.013-0.045c-0.028-0.068-0.069-0.127-0.103-0.193
			c-0.051-0.103-0.099-0.205-0.158-0.303c-0.055-0.084-0.115-0.158-0.177-0.236c-0.062-0.079-0.12-0.161-0.191-0.234
			c-0.072-0.076-0.153-0.143-0.233-0.211c-0.071-0.063-0.142-0.126-0.22-0.181c-0.097-0.068-0.198-0.122-0.301-0.178
			c-0.062-0.033-0.115-0.078-0.183-0.108L231.746,0.287c-0.953-0.445-2.066-0.367-2.951,0.198c-0.887,0.566-1.421,1.544-1.421,2.594
			v27.812c0,0.005,0,0.015,0,0.02v18.675L25.34,153.021c-1.265,0.648-1.923,2.078-1.589,3.46c0.334,1.385,1.571,2.358,2.994,2.358
			h19.977v14.703v17.782c0,1.664,1.322,3.011,2.971,3.068c-1.601,2.303-2.544,5.093-2.544,8.105c0,4.875,2.464,9.183,6.207,11.754
			v166.275c-3.743,2.571-6.207,6.881-6.207,11.756c0,3.01,0.944,5.801,2.544,8.104c-1.649,0.059-2.971,1.404-2.971,3.067v27.198
			v27.2c0,1.701,1.378,3.079,3.079,3.079h357.187c1.698,0,3.078-1.378,3.078-3.079v-27.2v-27.198c0-1.663-1.321-3.012-2.972-3.067
			c1.602-2.305,2.544-5.096,2.544-8.104c0-4.875-2.463-9.185-6.208-11.757V214.253c3.744-2.57,6.208-6.878,6.208-11.754
			c0-3.029-0.957-5.834-2.573-8.146c1.46-0.243,2.573-1.501,2.573-3.028v-17.782V158.84h24.528c0.008,0.001,0.016,0.001,0.02,0
			c1.702,0,3.08-1.378,3.08-3.079C437.267,154.476,436.479,153.377,435.363,152.913z M233.532,7.9l21.355,9.898l-21.355,8.595V7.9z
			 M53.305,202.499c0-4.463,3.632-8.095,8.096-8.095h19.156c4.463,0,8.095,3.632,8.095,8.095c0,4.464-3.632,8.096-8.095,8.096
			H61.401C56.938,210.594,53.305,206.963,53.305,202.499z M92.272,194.404h20.376c-1.595,2.301-2.537,5.089-2.537,8.095
			c0,4.875,2.463,9.183,6.208,11.754v166.273c-3.745,2.571-6.208,6.881-6.208,11.756c0,3.006,0.941,5.793,2.537,8.095H92.272
			c1.596-2.302,2.538-5.089,2.538-8.095c0.001-4.875-2.463-9.185-6.207-11.756V214.253c3.743-2.571,6.207-6.879,6.207-11.754
			C94.811,199.492,93.869,196.704,92.272,194.404z M155.241,194.404h20.375c-1.595,2.301-2.536,5.089-2.536,8.095
			c0,4.875,2.462,9.183,6.207,11.754v166.273c-3.745,2.571-6.207,6.881-6.207,11.756c0,3.006,0.941,5.793,2.536,8.095h-20.375
			c1.595-2.302,2.535-5.089,2.535-8.095c0-4.875-2.464-9.185-6.208-11.756V214.253c3.743-2.571,6.208-6.879,6.208-11.754
			C157.776,199.492,156.835,196.704,155.241,194.404z M218.207,194.404h20.375c-1.595,2.301-2.536,5.089-2.536,8.095
			c0,4.875,2.464,9.183,6.209,11.754v166.273c-3.745,2.571-6.209,6.881-6.209,11.756c0,3.006,0.941,5.793,2.536,8.095h-20.375
			c1.595-2.302,2.535-5.089,2.535-8.095c0-4.875-2.461-9.185-6.207-11.756V214.253c3.746-2.571,6.207-6.879,6.207-11.754
			C220.741,199.492,219.801,196.704,218.207,194.404z M281.17,194.404h20.375c-1.594,2.301-2.536,5.089-2.536,8.095
			c0,4.875,2.464,9.183,6.207,11.754v166.273c-3.743,2.571-6.207,6.881-6.207,11.756c0,3.006,0.942,5.793,2.536,8.095H281.17
			c1.594-2.302,2.536-5.089,2.536-8.095c0-4.875-2.462-9.185-6.208-11.757V214.253c3.744-2.57,6.208-6.878,6.208-11.754
			C283.706,199.492,282.764,196.704,281.17,194.404z M344.136,194.404h20.376c-1.594,2.301-2.536,5.089-2.536,8.095
			c0,4.875,2.463,9.183,6.207,11.754v166.273c-3.744,2.571-6.207,6.881-6.207,11.756c0,3.006,0.942,5.793,2.536,8.095h-20.376
			c1.597-2.302,2.536-5.089,2.536-8.095c0-4.875-2.464-9.185-6.208-11.757V214.253c3.743-2.57,6.208-6.878,6.208-11.754
			C346.672,199.492,345.732,196.704,344.136,194.404z M313.263,384.186h19.155c4.465,0,8.095,3.63,8.095,8.097
			c0,4.463-3.63,8.095-8.095,8.095h-19.155c-4.465,0-8.096-3.632-8.096-8.095C305.167,387.815,308.798,384.186,313.263,384.186z
			 M311.375,378.027V216.754h1.888h19.155h1.887v161.273h-1.887h-19.155H311.375L311.375,378.027z M332.418,210.594h-19.155
			c-4.465,0-8.096-3.632-8.096-8.096c0-4.463,3.631-8.095,8.096-8.095h19.155c4.465,0,8.095,3.632,8.095,8.095
			C340.513,206.963,336.883,210.594,332.418,210.594z M250.299,384.186h19.156c4.463,0,8.094,3.63,8.094,8.097
			c0,4.463-3.631,8.095-8.094,8.095h-19.156c-4.464,0-8.096-3.632-8.096-8.095C242.204,387.815,245.835,384.186,250.299,384.186z
			 M248.411,378.027V216.754h1.889h19.156h1.885v161.273h-1.885H250.3H248.411L248.411,378.027z M269.454,210.594h-19.156
			c-4.463,0-8.094-3.632-8.094-8.096c0-4.463,3.631-8.095,8.094-8.095h19.156c4.464,0,8.095,3.632,8.095,8.095
			C277.548,206.963,273.917,210.594,269.454,210.594z M187.333,384.186h19.155c4.463,0,8.095,3.63,8.095,8.097
			c0,4.463-3.632,8.095-8.095,8.095h-19.155c-4.463,0-8.096-3.632-8.096-8.095C179.238,387.815,182.87,384.186,187.333,384.186z
			 M185.444,378.027V216.754h1.887h19.156h1.888v161.273h-1.888h-19.156H185.444L185.444,378.027z M206.487,210.594h-19.156
			c-4.462,0-8.094-3.632-8.094-8.096c0-4.463,3.632-8.095,8.094-8.095h19.156c4.464,0,8.096,3.632,8.096,8.095
			C214.583,206.963,210.951,210.594,206.487,210.594z M124.367,384.186h19.156c4.464,0,8.096,3.63,8.096,8.097
			c0,4.463-3.632,8.095-8.096,8.095h-19.156c-4.464,0-8.094-3.632-8.094-8.095C116.272,387.815,119.903,384.186,124.367,384.186z
			 M122.479,378.027V216.754h1.887h19.156h1.886v161.273h-1.886h-19.156H122.479L122.479,378.027z M143.522,210.594h-19.156
			c-4.464,0-8.094-3.632-8.094-8.096c0-4.463,3.63-8.095,8.094-8.095h19.156c4.464,0,8.096,3.632,8.096,8.095
			C151.618,206.963,147.986,210.594,143.522,210.594z M82.444,216.754v161.273h-1.887H61.401h-1.887V216.754h1.887h19.156H82.444z
			 M61.401,384.187h19.156c4.463,0,8.095,3.631,8.095,8.097c0,4.464-3.632,8.094-8.095,8.094H61.401
			c-4.463,0-8.096-3.63-8.096-8.094C53.305,387.817,56.938,384.187,61.401,384.187z M403.908,454.775H52.879v-21.041h351.028
			L403.908,454.775L403.908,454.775z M403.908,427.575H52.879v-21.041H61.4h19.156h43.81h19.156h43.808h19.156h43.811h19.156h43.81
			h19.155h43.811h19.156h8.522L403.908,427.575L403.908,427.575z M403.48,392.281c0,4.463-3.633,8.095-8.096,8.095h-19.156
			c-4.464,0-8.094-3.632-8.094-8.095c0-4.467,3.63-8.097,8.094-8.097h19.156C399.848,384.186,403.48,387.815,403.48,392.281z
			 M374.342,378.027V216.754h1.887h19.156h1.887v161.273h-1.887h-19.156H374.342L374.342,378.027z M395.385,210.594h-19.156
			c-4.464,0-8.094-3.632-8.094-8.096c0-4.463,3.63-8.095,8.094-8.095h19.156c4.463,0,8.096,3.632,8.096,8.095
			C403.48,206.963,399.848,210.594,395.385,210.594z M403.48,188.246h-8.096h-19.156h-43.81h-19.156h-43.81h-19.156h-43.811H187.33
			h-43.808h-19.156h-43.81H61.4h-8.521v-11.623H403.48V188.246L403.48,188.246z M403.48,170.464H52.879V158.84H403.48V170.464z
			 M406.559,152.68H49.799H39.515l190.939-97.75l190.938,97.75H406.559z"/>
		<path d="M83.952,138.651c-1.267,0.648-1.923,2.079-1.588,3.462c0.332,1.384,1.569,2.358,2.993,2.358h281.304
			c0.002,0,0.005,0,0.008,0h0.003h8.884c0.007,0,0.016,0,0.021,0c1.698,0,3.078-1.379,3.078-3.08c0-1.283-0.785-2.384-1.902-2.847
			L231.86,64.367c-0.884-0.45-1.926-0.45-2.809,0L83.952,138.651z M230.465,70.59l132.687,67.721h-6.225h-8.326H337.97h-8.418
			h-10.638l0.004,0.002h-8.379v-0.001l-0.002-0.001h-10.625h-8.379v0.001l-0.002-0.001h-10.524l0.001,0.001h-8.469l-0.002-0.001
			h-10.338h-8.664v0.001l-0.001-0.001h-10.255l0.002,0.001h-8.757l-0.002-0.001h-10.214l0.001,0.001h-8.759l-0.001-0.001h-9.893
			l0.003,0.002h-9.139v-0.001l-0.001-0.001h-10.004l0.001,0.001H177.5l-0.001-0.001h-10.038l0.001,0.001h-9l-0.001-0.001h-10.198
			l0.001,0.001h-8.737l-0.001-0.001h-9.608l0.001,0.001h-9.487l-0.001-0.001h-10.194H98.125l7.227-3.699h0.001l6.087-3.113
			l-0.001-0.001l6.391-3.273l0.003,0.002l5.958-3.049l-0.004-0.002l4.26-2.18l0.004,0.002l6.088-3.115l-0.005-0.004l5.791-2.965
			l0.007,0.005l6.051-3.096l-0.007-0.005l5.545-2.842l0.01,0.008l6.043-3.093l-0.009-0.007l5.985-3.063l0.01,0.008l6.021-3.082
			l-0.011-0.009l3.779-1.935l0.012,0.009l6.092-3.118l-0.014-0.01l5.012-2.565l0.015,0.011l6.099-3.121l-0.016-0.012l4.616-2.362
			l0.016,0.012l6.116-3.13l-0.018-0.013l3.825-1.957l0.017,0.012l6.159-3.152l-0.019-0.013l4.204-2.154l0.021,0.015l6.179-3.162
			l-0.021-0.015l4.812-2.464l0.021,0.016L230.465,70.59z"/>
	</g>
</g>
<g>
</g>
<g>
</g>
<g>
</g>
<g>
</g>
<g>
</g>
<g>
</g>
<g>
</g>
<g>
</g>
<g>
</g>
<g>
</g>
<g>
</g>
<g>
</g>
<g>
</g>
<g>
</g>
<g>
</g>
</svg>
